<svg xmlns="http://www.w3.org/2000/svg" viewBox="0 0 128 128" role="img" aria-labelledby="title desc">
  <title id="title">Feishu Image Host</title>
  <desc id="desc">A cloud image hosting logo with a paper plane and photo frame.</desc>
  <defs>
    <linearGradient id="bg" x1="18" y1="12" x2="112" y2="118" gradientUnits="userSpaceOnUse">
      <stop offset="0" stop-color="#22d3ee" />
      <stop offset="0.5" stop-color="#2563eb" />
      <stop offset="1" stop-color="#7c3aed" />
    </linearGradient>
    <linearGradient id="shine" x1="34" y1="22" x2="94" y2="106" gradientUnits="userSpaceOnUse">
      <stop offset="0" stop-color="#ffffff" stop-opacity="0.95" />
      <stop offset="1" stop-color="#dbeafe" stop-opacity="0.78" />
    </linearGradient>
    <filter id="shadow" x="-20%" y="-20%" width="140%" height="140%" color-interpolation-filters="sRGB">
      <feDropShadow dx="0" dy="8" stdDeviation="10" flood-color="#1e3a8a" flood-opacity="0.28" />
    </filter>
  </defs>
  <rect width="128" height="128" rx="30" fill="url(#bg)" />
  <path d="M36 76.5c-10.5 0-19-7.6-19-17 0-8.3 6.6-15.2 15.4-16.7C36 33.7 45.2 27 56.1 27c13.3 0 24.4 9.8 25.5 22.4 1.6-.4 3.3-.6 5.1-.6 13.4 0 24.3 9.9 24.3 22.1 0 12.2-10.9 22.1-24.3 22.1H42.8" fill="#0f172a" opacity="0.18" filter="url(#shadow)" />
  <path d="M35.2 72.8c-9.3 0-16.8-6.8-16.8-15.2 0-7.5 5.9-13.6 13.7-14.9C35.3 34.5 43.5 28.5 53.2 28.5c11.8 0 21.7 8.8 22.7 20 1.4-.4 2.9-.5 4.5-.5 11.9 0 21.6 8.9 21.6 19.8 0 10.9-9.7 19.8-21.6 19.8H35.2Z" fill="url(#shine)" opacity="0.98" />
  <rect x="36" y="54" width="45" height="36" rx="8" fill="#ffffff" stroke="#1d4ed8" stroke-width="4" />
  <path d="M42 82 54 70l8 8 7-7 8 11H42Z" fill="#38bdf8" />
  <circle cx="68" cy="64" r="4.5" fill="#f59e0b" />
  <path d="M77 37 104 30 92 59l-6.1-11.8L73 43.5 77 37Z" fill="#ffffff" stroke="#1d4ed8" stroke-linejoin="round" stroke-width="4" />
  <path d="M86 47.2 104 30" fill="none" stroke="#1d4ed8" stroke-linecap="round" stroke-width="3.5" />
</svg>
